<svg t="1713890166499" class="icon" viewBox="0 0 1024 1024" version="1.1" xmlns="http://www.w3.org/2000/svg" p-id="899" width="16" height="16"><path d="M269.888 135.04C477.696 1.472 755.648 61.76 889.216 269.632c133.696 207.872 73.28 485.696-134.592 619.2A444.8 444.8 0 0 1 512.96 960a448.128 448.128 0 0 1-377.6-205.568 446.144 446.144 0 0 1 11.456-501.76 34.688 34.688 0 1 1 56.64 40.256 376.96 376.96 0 0 0-9.728 423.936 379.136 379.136 0 0 0 523.328 113.728A379.136 379.136 0 0 0 830.784 307.2a379.136 379.136 0 0 0-523.328-113.728 34.688 34.688 0 1 1-37.568-58.432z m252.032 421.248L397.632 685.44a34.624 34.624 0 1 1-49.92-48.192l124.16-129.024a43.776 43.776 0 0 0 12.16-30.4V361.024a34.816 34.816 0 0 1 69.568 0v116.736c0 29.44-11.328 57.344-31.68 78.528z" p-id="900"></path></svg>
